# xmcd
#
# Track frame offsets:
#	150
#	10826
#	20989
#	33667
#	43773
#	54808
#	65566
#	78160
#	89602
#	103197
#	114821
#	125989
#	137766
#	150866
#	164847
#	175886
#	188790
#	201106
#	211904
#	224404
#	234827
#	246408
#	256587
#	267716
#	280773
#	291935
#	300615
#	314097
#	325143
#
# Disc length: 4443 seconds
#
# Revision: 1
# Processed by: cddbd v1.5.2PL0 Copyright (c) Steve Scherf et al.
# Submitted via: audiograbber 1.83.01
#
DISCID=b011591d
DTITLE=Willie Nelson - It's Been Rough and Rocky Travelin'- The Earliest 1954-1
DTITLE=963  CD2
DYEAR=2003
DGENRE=Country
TTITLE0=The Part Where I Cry (1961)
TTITLE1=Touch Me (1962)
TTITLE2=Mr. Record Man (1961)
TTITLE3=Go Away (1992)
TTITLE4=The Waiting Time (1992)
TTITLE5=Where My House Lives (1962)
TTITLE6=Country Willie (1975)
TTITLE7=How Long Is Forever (Version 1) (1992)
TTITLE8=Three Days (1962)
TTITLE9=Darkness On The Face Of The Earth (1962)
TTITLE10=One Step Beyond (1962)
TTITLE11=Undo The Right (1962)
TTITLE12=Crazy (1962)
TTITLE13=Funny How Time Slips Away (1962)
TTITLE14=Hello Walls (1962)
TTITLE15=Wake Me When It's Over (1962)
TTITLE16=Our Chain Of Love (1961)
TTITLE17=Is This My Destiny (1962)
TTITLE18=Willingly (1961)
TTITLE19=You Dream About Me (1962)
TTITLE20=There Goes A Man (1975)
TTITLE21=There's Gonna Be Love In My House Tonight (1962)
TTITLE22=You Wouldn't Even Cross The Street To Say Goodbye (1992)
TTITLE23=How Long Is Forever (Version 2) (1963)
TTITLE24=Half A Man (1963)
TTITLE25=Take My Word (Version 1) (1992)
TTITLE26=The Last Letter (1963)
TTITLE27=Home Motel (1963)
TTITLE28=Take My Word (Version 2) (1963)
EXTD=
EXTT0=
EXTT1=
EXTT2=
EXTT3=
EXTT4=
EXTT5=
EXTT6=
EXTT7=
EXTT8=
EXTT9=
EXTT10=
EXTT11=
EXTT12=
EXTT13=
EXTT14=
EXTT15=
EXTT16=
EXTT17=
EXTT18=
EXTT19=
EXTT20=
EXTT21=
EXTT22=
EXTT23=
EXTT24=
EXTT25=
EXTT26=
EXTT27=
EXTT28=
PLAYORDER=
